<?xml version="1.0" encoding="UTF-8"?>
<svg xmlns="http://www.w3.org/2000/svg" xmlns:xlink="http://www.w3.org/1999/xlink" width="14px" height="12px" viewBox="0 0 13 12" version="1.1">
<g id="surface1">
<path style=" stroke:none;fill-rule:nonzero;fill:rgb(0%,84.705882%,100%);fill-opacity:1;" d="M 10.667969 3.886719 C 10.53125 3.835938 10.390625 3.789062 10.25 3.75 C 10.273438 3.648438 10.296875 3.550781 10.316406 3.453125 C 10.628906 1.859375 10.425781 0.574219 9.71875 0.152344 C 9.042969 -0.253906 7.933594 0.167969 6.816406 1.179688 C 6.707031 1.28125 6.597656 1.382812 6.492188 1.488281 C 6.421875 1.417969 6.351562 1.347656 6.277344 1.28125 C 5.105469 0.203125 3.933594 -0.253906 3.226562 0.171875 C 2.550781 0.578125 2.351562 1.785156 2.636719 3.292969 C 2.664062 3.445312 2.695312 3.59375 2.730469 3.742188 C 2.566406 3.789062 2.40625 3.839844 2.25 3.898438 C 0.878906 4.394531 0 5.175781 0 5.984375 C 0 6.816406 0.941406 7.65625 2.371094 8.164062 C 2.488281 8.203125 2.605469 8.242188 2.722656 8.277344 C 2.683594 8.4375 2.652344 8.597656 2.621094 8.757812 C 2.351562 10.242188 2.5625 11.421875 3.238281 11.824219 C 3.933594 12.242188 5.101562 11.8125 6.242188 10.78125 C 6.332031 10.695312 6.421875 10.609375 6.511719 10.519531 C 6.625 10.632812 6.742188 10.746094 6.863281 10.851562 C 7.964844 11.839844 9.054688 12.234375 9.726562 11.832031 C 10.421875 11.414062 10.648438 10.144531 10.355469 8.605469 C 10.332031 8.484375 10.308594 8.367188 10.277344 8.246094 C 10.359375 8.222656 10.441406 8.195312 10.519531 8.167969 C 12.007812 7.65625 12.976562 6.828125 12.976562 5.984375 C 12.976562 5.171875 12.070312 4.386719 10.667969 3.886719 Z M 10.34375 7.621094 C 10.273438 7.644531 10.203125 7.667969 10.128906 7.691406 C 9.964844 7.152344 9.742188 6.578125 9.46875 5.984375 C 9.730469 5.40625 9.941406 4.839844 10.101562 4.304688 C 10.234375 4.34375 10.363281 4.386719 10.488281 4.429688 C 11.6875 4.859375 12.421875 5.492188 12.421875 5.984375 C 12.421875 6.503906 11.628906 7.179688 10.34375 7.621094 Z M 9.8125 8.71875 C 9.941406 9.398438 9.960938 10.015625 9.875 10.496094 C 9.796875 10.929688 9.640625 11.21875 9.449219 11.332031 C 9.039062 11.578125 8.167969 11.257812 7.222656 10.417969 C 7.113281 10.316406 7.003906 10.214844 6.898438 10.105469 C 7.261719 9.691406 7.628906 9.210938 7.984375 8.671875 C 8.613281 8.617188 9.203125 8.519531 9.742188 8.390625 C 9.769531 8.5 9.792969 8.609375 9.8125 8.71875 Z M 4.421875 11.289062 C 4.023438 11.4375 3.707031 11.441406 3.511719 11.324219 C 3.105469 11.082031 2.933594 10.132812 3.167969 8.863281 C 3.195312 8.714844 3.226562 8.566406 3.261719 8.417969 C 3.792969 8.539062 4.378906 8.628906 5.007812 8.679688 C 5.367188 9.207031 5.746094 9.6875 6.121094 10.109375 C 6.042969 10.191406 5.960938 10.269531 5.875 10.347656 C 5.371094 10.804688 4.867188 11.128906 4.421875 11.289062 Z M 2.550781 7.617188 C 1.917969 7.394531 1.398438 7.101562 1.039062 6.785156 C 0.714844 6.496094 0.554688 6.214844 0.554688 5.984375 C 0.554688 5.492188 1.257812 4.867188 2.433594 4.441406 C 2.574219 4.390625 2.726562 4.339844 2.878906 4.292969 C 3.042969 4.84375 3.253906 5.417969 3.511719 5.996094 C 3.253906 6.585938 3.035156 7.167969 2.871094 7.722656 C 2.765625 7.691406 2.65625 7.65625 2.550781 7.617188 Z M 3.179688 3.183594 C 2.933594 1.890625 3.097656 0.914062 3.503906 0.667969 C 3.9375 0.40625 4.898438 0.78125 5.910156 1.710938 C 5.976562 1.773438 6.042969 1.835938 6.105469 1.898438 C 5.726562 2.320312 5.355469 2.796875 5 3.320312 C 4.390625 3.378906 3.804688 3.472656 3.269531 3.597656 C 3.234375 3.460938 3.207031 3.324219 3.179688 3.183594 Z M 8.777344 4.617188 C 8.648438 4.390625 8.515625 4.167969 8.382812 3.945312 C 8.796875 4 9.191406 4.070312 9.5625 4.160156 C 9.453125 4.53125 9.3125 4.921875 9.148438 5.320312 C 9.027344 5.082031 8.90625 4.851562 8.777344 4.617188 Z M 6.492188 2.308594 C 6.75 2.597656 7.003906 2.917969 7.257812 3.265625 C 6.746094 3.242188 6.234375 3.242188 5.722656 3.265625 C 5.976562 2.921875 6.234375 2.601562 6.492188 2.308594 Z M 4.195312 4.621094 C 4.070312 4.851562 3.945312 5.085938 3.832031 5.320312 C 3.667969 4.921875 3.53125 4.53125 3.417969 4.152344 C 3.789062 4.066406 4.183594 3.996094 4.59375 3.945312 C 4.457031 4.167969 4.324219 4.394531 4.195312 4.621094 Z M 4.605469 8.0625 C 4.179688 8.011719 3.78125 7.945312 3.410156 7.863281 C 3.523438 7.476562 3.667969 7.078125 3.832031 6.671875 C 3.949219 6.910156 4.070312 7.140625 4.199219 7.371094 C 4.332031 7.605469 4.464844 7.835938 4.605469 8.0625 Z M 6.507812 9.695312 C 6.246094 9.402344 5.984375 9.074219 5.726562 8.726562 C 5.976562 8.734375 6.230469 8.742188 6.488281 8.742188 C 6.75 8.742188 7.011719 8.734375 7.269531 8.722656 C 7.019531 9.078125 6.761719 9.40625 6.507812 9.695312 Z M 9.15625 6.652344 C 9.328125 7.0625 9.472656 7.460938 9.589844 7.835938 C 9.214844 7.925781 8.808594 8 8.378906 8.050781 C 8.515625 7.824219 8.648438 7.597656 8.777344 7.367188 C 8.910156 7.132812 9.035156 6.894531 9.15625 6.652344 Z M 8.296875 7.078125 C 8.101562 7.433594 7.894531 7.78125 7.675781 8.121094 C 7.28125 8.152344 6.882812 8.164062 6.488281 8.164062 C 6.082031 8.164062 5.691406 8.152344 5.3125 8.125 C 5.089844 7.785156 4.878906 7.4375 4.679688 7.082031 C 4.480469 6.726562 4.296875 6.367188 4.125 5.996094 C 4.296875 5.628906 4.480469 5.265625 4.675781 4.910156 C 4.875 4.554688 5.082031 4.207031 5.304688 3.871094 C 5.691406 3.839844 6.085938 3.824219 6.488281 3.824219 C 6.890625 3.824219 7.285156 3.839844 7.671875 3.871094 C 7.890625 4.207031 8.097656 4.554688 8.296875 4.90625 C 8.492188 5.261719 8.679688 5.621094 8.855469 5.988281 C 8.683594 6.359375 8.496094 6.722656 8.296875 7.078125 Z M 9.441406 0.652344 C 9.875 0.910156 10.042969 1.960938 9.773438 3.335938 C 9.753906 3.425781 9.734375 3.515625 9.714844 3.605469 C 9.175781 3.476562 8.589844 3.378906 7.980469 3.320312 C 7.621094 2.792969 7.253906 2.3125 6.882812 1.898438 C 6.980469 1.800781 7.078125 1.707031 7.179688 1.613281 C 8.136719 0.75 9.035156 0.40625 9.441406 0.652344 Z M 6.488281 4.78125 C 7.128906 4.78125 7.644531 5.316406 7.644531 5.984375 C 7.644531 6.648438 7.128906 7.1875 6.488281 7.1875 C 5.847656 7.1875 5.328125 6.648438 5.328125 5.984375 C 5.328125 5.316406 5.847656 4.78125 6.488281 4.78125 Z M 6.488281 4.78125 "/>
</g>
</svg>
